<svg width="41" height="40" viewBox="0 0 41 40" fill="none" xmlns="http://www.w3.org/2000/svg">
<g id="Social Network">
<g id="instagram">
<path d="M20.957 11.8072C23.6076 11.8072 23.9691 11.8072 25.0534 11.8072C26.0173 11.8072 26.4992 12.0482 26.8606 12.1687C27.3426 12.4096 27.704 12.5301 28.0655 12.8916C28.4269 13.253 28.6679 13.6145 28.7884 14.0964C28.9088 14.4578 29.0293 14.9398 29.1498 15.9036C29.1498 16.988 29.1498 17.2289 29.1498 20C29.1498 22.7711 29.1498 23.0121 29.1498 24.0964C29.1498 25.0602 28.9088 25.5422 28.7884 25.9036C28.5474 26.3855 28.4269 26.747 28.0655 27.1084C27.704 27.4699 27.3426 27.7108 26.8606 27.8313C26.4992 27.9518 26.0173 28.0723 25.0534 28.1928C23.9691 28.1928 23.7281 28.1928 20.957 28.1928C18.1859 28.1928 17.945 28.1928 16.8606 28.1928C15.8968 28.1928 15.4149 27.9518 15.0534 27.8313C14.5715 27.5904 14.21 27.4699 13.8486 27.1084C13.4872 26.747 13.2462 26.3855 13.1257 25.9036C13.0052 25.5422 12.8847 25.0602 12.7643 24.0964C12.7643 23.0121 12.7643 22.7711 12.7643 20C12.7643 17.2289 12.7643 16.988 12.7643 15.9036C12.7643 14.9398 13.0052 14.4578 13.1257 14.0964C13.3667 13.6145 13.4872 13.253 13.8486 12.8916C14.21 12.5301 14.5715 12.2892 15.0534 12.1687C15.4149 12.0482 15.8968 11.9277 16.8606 11.8072C17.945 11.8072 18.3064 11.8072 20.957 11.8072ZM20.957 10C18.1859 10 17.945 10 16.8606 10C15.7763 10 15.0534 10.241 14.451 10.4819C13.8486 10.7229 13.2462 11.0843 12.6438 11.6867C12.0414 12.2892 11.8004 12.7711 11.439 13.494C11.198 14.0964 11.0775 14.8193 10.957 15.9036C10.957 16.988 10.957 17.3494 10.957 20C10.957 22.7711 10.957 23.0121 10.957 24.0964C10.957 25.1807 11.198 25.9036 11.439 26.506C11.6799 27.1084 12.0414 27.7108 12.6438 28.3133C13.2462 28.9157 13.7281 29.1566 14.451 29.5181C15.0534 29.759 15.7763 29.8795 16.8606 30C17.945 30 18.3064 30 20.957 30C23.6076 30 23.9691 30 25.0534 30C26.1378 30 26.8606 29.759 27.4631 29.5181C28.0655 29.2771 28.6679 28.9157 29.2703 28.3133C29.8727 27.7108 30.1137 27.2289 30.4751 26.506C30.7161 25.9036 30.8365 25.1807 30.957 24.0964C30.957 23.0121 30.957 22.6506 30.957 20C30.957 17.3494 30.957 16.988 30.957 15.9036C30.957 14.8193 30.7161 14.0964 30.4751 13.494C30.2341 12.8916 29.8727 12.2892 29.2703 11.6867C28.6679 11.0843 28.1859 10.8434 27.4631 10.4819C26.8606 10.241 26.1378 10.1205 25.0534 10C23.9691 10 23.7281 10 20.957 10Z" fill="#3A4F39"/>
<path d="M20.957 14.8193C18.0655 14.8193 15.7763 17.1084 15.7763 20C15.7763 22.8916 18.0655 25.1807 20.957 25.1807C23.8486 25.1807 26.1378 22.8916 26.1378 20C26.1378 17.1084 23.8486 14.8193 20.957 14.8193ZM20.957 23.3735C19.1498 23.3735 17.5835 21.9277 17.5835 20C17.5835 18.1928 19.0293 16.6265 20.957 16.6265C22.7643 16.6265 24.3305 18.0723 24.3305 20C24.3305 21.8072 22.7643 23.3735 20.957 23.3735Z" fill="#3A4F39"/>
<path d="M26.2582 15.9036C26.9236 15.9036 27.4631 15.3642 27.4631 14.6988C27.4631 14.0334 26.9236 13.494 26.2582 13.494C25.5928 13.494 25.0534 14.0334 25.0534 14.6988C25.0534 15.3642 25.5928 15.9036 26.2582 15.9036Z" fill="#3A4F39"/>
</g>
</g>
</svg>
