<svg width="41" height="40" viewBox="0 0 41 40" fill="none" xmlns="http://www.w3.org/2000/svg">
<g id="Social Network">
<path id="Vector" d="M31.557 14.9C30.857 15.2 30.057 15.4 29.257 15.5C30.057 15 30.757 14.2 31.057 13.3C30.257 13.8 29.457 14.1 28.457 14.3C27.757 13.5 26.657 13 25.557 13C23.357 13 21.557 14.8 21.557 17C21.557 17.3 21.557 17.6 21.657 17.9C18.357 17.7 15.357 16.1 13.357 13.7C13.057 14.3 12.857 15 12.857 15.7C12.857 17.1 13.557 18.3 14.657 19C13.957 19 13.357 18.8 12.857 18.5C12.857 20.4 14.257 22.1 16.057 22.4C15.757 22.5 15.357 22.5 14.957 22.5C14.657 22.5 14.457 22.5 14.157 22.4C14.657 24 16.157 25.2 17.957 25.2C16.557 26.3 14.857 26.9 12.957 26.9C12.657 26.9 12.357 26.9 11.957 26.8C13.757 27.9 15.857 28.6 18.157 28.6C25.557 28.6 29.557 22.5 29.557 17.2V16.7C30.357 16.4 31.057 15.7 31.557 14.9Z" fill="#3A4F39"/>
</g>
</svg>
