<svg width="31" height="31" viewBox="0 0 31 31" fill="none" xmlns="http://www.w3.org/2000/svg">
<g id="oui:arrow-up">
<path id="Vector" d="M10.17 6.09039L18.8157 14.8748C19.0053 15.0664 19.1116 15.3252 19.1116 15.5948C19.1116 15.8644 19.0053 16.1231 18.8157 16.3148L10.1719 25.0991C9.9824 25.292 9.87621 25.5516 9.87621 25.822C9.87621 26.0923 9.9824 26.3519 10.1719 26.5448C10.2645 26.6397 10.3752 26.7152 10.4974 26.7667C10.6196 26.8183 10.7509 26.8448 10.8835 26.8448C11.0161 26.8448 11.1474 26.8183 11.2696 26.7667C11.3918 26.7152 11.5025 26.6397 11.595 26.5448L20.2388 17.7623C20.8068 17.1838 21.125 16.4055 21.125 15.5948C21.125 14.7841 20.8068 14.0057 20.2388 13.4273L11.595 4.64476C11.5024 4.54951 11.3917 4.47379 11.2693 4.42209C11.1469 4.37039 11.0154 4.34375 10.8825 4.34375C10.7497 4.34375 10.6182 4.37039 10.4958 4.42209C10.3734 4.47379 10.2627 4.54951 10.17 4.64476C9.98052 4.83762 9.87433 5.09719 9.87433 5.36758C9.87433 5.63796 9.98052 5.89754 10.17 6.09039Z" fill="black"/>
</g>
</svg>
