<svg width="56" height="55" viewBox="0 0 56 55" fill="none" xmlns="http://www.w3.org/2000/svg">
<g id="ph:megaphone-bold">
<path id="Vector" d="M52.4806 25.7812C52.4771 22.8193 51.299 19.9796 49.2046 17.8853C47.1102 15.7909 44.2706 14.6127 41.3087 14.6093H32.7837C32.0446 14.5642 21.4829 13.7499 11.4153 5.30658C10.7891 4.78079 10.0258 4.44462 9.21509 4.33754C8.40442 4.23046 7.58002 4.35693 6.83872 4.70209C6.09742 5.04724 5.46999 5.59676 5.03014 6.2861C4.59029 6.97544 4.35626 7.77598 4.35555 8.59369V42.9687C4.35038 43.7874 4.58156 44.5901 5.02133 45.2807C5.46111 45.9712 6.0908 46.5201 6.83485 46.8617C7.57572 47.2114 8.40162 47.3405 9.21387 47.2334C10.0261 47.1263 10.7904 46.7877 11.4153 46.258C16.5684 41.926 22.6992 38.9145 29.2774 37.4837V43.1126C29.2773 43.8199 29.4518 44.5162 29.7853 45.1398C30.1189 45.7635 30.6012 46.2951 31.1895 46.6876C31.2849 46.7519 31.3847 46.8093 31.4882 46.8595L34.5905 48.3763C35.1639 48.7196 35.8095 48.9244 36.476 48.9744C37.1424 49.0244 37.8113 48.9182 38.4296 48.6644C39.0478 48.4106 39.5983 48.016 40.0373 47.5121C40.4763 47.0082 40.7917 46.4088 40.9585 45.7617L43.3411 36.7769C45.9084 36.299 48.2275 34.938 49.8968 32.9297C51.566 30.9215 52.48 28.3926 52.4806 25.7812ZM9.5118 41.1705V10.3984C17.2827 16.429 25.0171 18.5839 29.2774 19.3488V32.2265C25.0171 32.9828 17.2827 35.1376 9.5118 41.1705ZM36.2362 43.4413L34.4337 42.5605V36.9531H37.9571L36.2362 43.4413ZM41.3087 31.7968H34.4337V19.7656H41.3087C42.9041 19.7656 44.4342 20.3994 45.5624 21.5275C46.6905 22.6557 47.3243 24.1858 47.3243 25.7812C47.3243 27.3766 46.6905 28.9067 45.5624 30.0349C44.4342 31.163 42.9041 31.7968 41.3087 31.7968Z" fill="black"/>
</g>
</svg>
